<svg xmlns="http://www.w3.org/2000/svg" version="1.1" xmlns:xlink="http://www.w3.org/1999/xlink" width="200" height="200"><svg xmlns="http://www.w3.org/2000/svg" version="1.1" xmlns:xlink="http://www.w3.org/1999/xlink" viewBox="0 0 200 200"><rect width="200" height="200" fill="url('#gradient')"></rect><defs><linearGradient id="SvgjsLinearGradient1001" gradientTransform="rotate(45 0.5 0.5)"><stop offset="0%" stop-color="#f99610"></stop><stop offset="100%" stop-color="#d71527"></stop></linearGradient></defs><g><g fill="#273db2" transform="matrix(1.9596002551562832,0,0,1.9596002551562832,7.896834539474895,114.39689648529075)" stroke="#3a7671" stroke-width="0.2"><path d="M4.50-14.22L4.50-2.64L10.47-2.64L10.47 0L1.07 0L1.07-14.22L4.50-14.22ZM15.23-10.57L15.23 0L11.93 0L11.93-10.57L15.23-10.57ZM11.74-13.29L11.74-13.29Q11.74-13.99 12.25-14.44Q12.75-14.89 13.56-14.89Q14.38-14.89 14.88-14.44Q15.39-13.99 15.39-13.29Q15.39-12.59 14.88-12.14Q14.38-11.69 13.56-11.69Q12.75-11.69 12.25-12.14Q11.74-12.59 11.74-13.29ZM16.86-4.82L16.85-5.38Q16.85-6.96 17.46-8.20Q18.08-9.43 19.23-10.10Q20.38-10.76 21.93-10.76L21.93-10.76Q24.31-10.76 25.67-9.29Q27.04-7.82 27.04-5.29L27.04-5.29L27.04-5.18Q27.04-2.71 25.67-1.25Q24.30 0.20 21.95 0.20L21.95 0.20Q19.70 0.20 18.33-1.16Q16.96-2.51 16.86-4.82L16.86-4.82ZM20.15-5.77L20.14-5.18Q20.14-3.71 20.60-3.03Q21.05-2.34 21.95-2.34L21.95-2.34Q23.71-2.34 23.75-5.05L23.75-5.05L23.75-5.38Q23.75-8.22 21.93-8.22L21.93-8.22Q20.28-8.22 20.15-5.77L20.15-5.77ZM28.43-10.57L31.51-10.57L31.62-9.33Q32.71-10.76 34.64-10.76L34.64-10.76Q36.29-10.76 37.10-9.78Q37.92-8.79 37.95-6.81L37.95-6.81L37.95 0L34.65 0L34.65-6.67Q34.65-7.47 34.33-7.85Q34.00-8.22 33.15-8.22L33.15-8.22Q32.19-8.22 31.72-7.46L31.72-7.46L31.72 0L28.43 0L28.43-10.57ZM56.78-14.22L56.78 0L53.37 0L48.33-8.85L48.33 0L44.90 0L44.90-14.22L48.33-14.22L53.36-5.37L53.36-14.22L56.78-14.22ZM63.91 0.20L63.91 0.20Q61.47 0.20 59.97-1.25Q58.47-2.71 58.47-5.03L58.47-5.03L58.47-5.30Q58.47-6.92 59.07-8.16Q59.67-9.40 60.82-10.08Q61.97-10.76 63.55-10.76L63.55-10.76Q65.78-10.76 67.07-9.38Q68.36-8.00 68.36-5.53L68.36-5.53L68.36-4.25L61.82-4.25Q61.99-3.36 62.59-2.85Q63.18-2.34 64.13-2.34L64.13-2.34Q65.69-2.34 66.57-3.44L66.57-3.44L68.08-1.66Q67.46-0.81 66.33-0.31Q65.21 0.20 63.91 0.20ZM63.54-8.22L63.54-8.22Q62.09-8.22 61.82-6.31L61.82-6.31L65.14-6.31L65.14-6.56Q65.16-7.35 64.74-7.79Q64.32-8.22 63.54-8.22ZM77.15-10.57L78.81-4.34L79.87-10.57L83.03-10.57L80.54 0L77.75 0L76.01-6.27L74.25 0L71.46 0L68.97-10.57L72.13-10.57L73.17-4.19L74.85-10.57L77.15-10.57ZM89.74-2.97L89.74-2.97Q89.74-3.39 89.30-3.64Q88.86-3.90 87.63-4.17Q86.40-4.44 85.60-4.89Q84.79-5.33 84.38-5.97Q83.96-6.60 83.96-7.42L83.96-7.42Q83.96-8.88 85.16-9.82Q86.36-10.76 88.30-10.76L88.30-10.76Q90.39-10.76 91.66-9.81Q92.93-8.87 92.93-7.32L92.93-7.32L89.63-7.32Q89.63-8.59 88.29-8.59L88.29-8.59Q87.77-8.59 87.42-8.31Q87.07-8.02 87.07-7.59L87.07-7.59Q87.07-7.15 87.50-6.88Q87.93-6.60 88.87-6.43Q89.81-6.25 90.53-6.01L90.53-6.01Q92.91-5.19 92.91-3.07L92.91-3.07Q92.91-1.62 91.63-0.71Q90.34 0.20 88.30 0.20L88.30 0.20Q86.94 0.20 85.88-0.29Q84.81-0.78 84.22-1.62Q83.62-2.46 83.62-3.39L83.62-3.39L86.70-3.39Q86.72-2.66 87.19-2.32Q87.66-1.98 88.39-1.98L88.39-1.98Q89.06-1.98 89.40-2.26Q89.74-2.53 89.74-2.97Z"></path></g></g></svg><style>@media (prefers-color-scheme: light) { :root { filter: none; } }
@media (prefers-color-scheme: dark) { :root { filter: none; } }
</style></svg>